<svg class="faux code" xmlns="http://www.w3.org/2000/svg" xmlns:xlink="http://www.w3.org/1999/xlink" width="335" height="270" viewBox="0 0 335 270">
<rect x="0" y="0" width="335" height="270" fill="#fff"></rect><g class="code block" stroke-linecap="round" stroke-width="5">
<g class="code block" stroke-linecap="round" stroke-width="5">
   <line x1="7.5" y1="10" x2="42.5" y2="10" stroke="#333"></line>
   <line x1="47.5" y1="10" x2="72.5" y2="10" stroke="#333"></line>
   <line x1="82.5" y1="10" x2="97.5" y2="10" stroke="#333"></line>
   <line x1="107.5" y1="10" x2="207.5" y2="10" stroke="#333"></line>
   <line x1="212.5" y1="10" x2="212.5" y2="10" stroke="#333"></line></g>

<g class="code block" stroke-linecap="round" stroke-width="5">
   <line x1="7.5" y1="20" x2="212.5" y2="20" stroke="#777"></line></g>

<g class="code block" stroke-linecap="round" stroke-width="5">
   <line x1="7.5" y1="30" x2="42.5" y2="30" stroke="#333"></line>
   <line x1="47.5" y1="30" x2="72.5" y2="30" stroke="#333"></line>
   <line x1="82.5" y1="30" x2="97.5" y2="30" stroke="#333"></line>
   <line x1="107.5" y1="30" x2="207.5" y2="30" stroke="#333"></line>
   <line x1="212.5" y1="30" x2="212.5" y2="30" stroke="#333"></line></g>

<g class="code block" stroke-linecap="round" stroke-width="5">
   <line x1="7.5" y1="40" x2="42.5" y2="40" stroke="#333"></line>
   <line x1="47.5" y1="40" x2="77.5" y2="40" stroke="#333"></line>
   <line x1="87.5" y1="40" x2="102.5" y2="40" stroke="#333"></line>
   <line x1="112.5" y1="40" x2="217.5" y2="40" stroke="#333"></line>
   <line x1="222.5" y1="40" x2="222.5" y2="40" stroke="#333"></line></g>

<g class="code block" stroke-linecap="round" stroke-width="5">
   <line x1="7.5" y1="50" x2="262.5" y2="50" stroke="#777"></line></g>

<g class="code block" stroke-linecap="round" stroke-width="5">
   <line x1="7.5" y1="60" x2="232.5" y2="60" stroke="#777"></line></g>

<g class="code block" stroke-linecap="round" stroke-width="5">
</g>

<g class="code block" stroke-linecap="round" stroke-width="5">
   <line x1="7.5" y1="80" x2="52.5" y2="80" stroke="#333"></line>
   <line x1="57.5" y1="80" x2="67.5" y2="80" stroke="#000"></line>
   <line x1="72.5" y1="80" x2="72.5" y2="80" stroke="#333"></line>
   <line x1="77.5" y1="80" x2="72.5" y2="80" stroke="#333"></line>
   <line x1="77.5" y1="80" x2="77.5" y2="80" stroke="#333"></line>
   <line x1="87.5" y1="80" x2="87.5" y2="80" stroke="#333"></line></g>

<g class="code block" stroke-linecap="round" stroke-width="5">
   <line x1="22.5" y1="90" x2="47.5" y2="90" stroke="#333"></line>
   <line x1="57.5" y1="90" x2="57.5" y2="90" stroke="#333"></line></g>

<g class="code block" stroke-linecap="round" stroke-width="5">
   <line x1="32.5" y1="100" x2="37.5" y2="100" stroke="#333"></line></g>

<g class="code block" stroke-linecap="round" stroke-width="5">
   <line x1="42.5" y1="110" x2="42.5" y2="110" stroke="#333"></line>
   <line x1="47.5" y1="110" x2="62.5" y2="110" stroke="#333"></line>
   <line x1="67.5" y1="110" x2="67.5" y2="110" stroke="#333"></line></g>

<g class="code block" stroke-linecap="round" stroke-width="5">
   <line x1="52.5" y1="120" x2="52.5" y2="120" stroke="#333"></line>
   <line x1="57.5" y1="120" x2="82.5" y2="120" stroke="#333"></line>
   <line x1="92.5" y1="120" x2="97.5" y2="120" stroke="#333"></line></g>

<g class="code block" stroke-linecap="round" stroke-width="5">
   <line x1="52.5" y1="130" x2="62.5" y2="130" stroke="#333"></line>
   <line x1="72.5" y1="130" x2="72.5" y2="130" stroke="#333"></line>
   <line x1="77.5" y1="130" x2="137.5" y2="130" stroke="#333"></line>
   <line x1="147.5" y1="130" x2="167.5" y2="130" stroke="#333"></line>
   <line x1="172.5" y1="130" x2="172.5" y2="130" stroke="#333"></line>
   <line x1="177.5" y1="130" x2="207.5" y2="130" stroke="#333"></line>
   <line x1="217.5" y1="130" x2="247.5" y2="130" stroke="#333"></line>
   <line x1="252.5" y1="130" x2="252.5" y2="130" stroke="#333"></line>
   <line x1="257.5" y1="130" x2="287.5" y2="130" stroke="#333"></line>
   <line x1="297.5" y1="130" x2="302.5" y2="130" stroke="#333"></line>
   <line x1="312.5" y1="130" x2="322.5" y2="130" stroke="#333"></line></g>

<g class="code block" stroke-linecap="round" stroke-width="5">
   <line x1="52.5" y1="140" x2="62.5" y2="140" stroke="#333"></line>
   <line x1="72.5" y1="140" x2="72.5" y2="140" stroke="#333"></line>
   <line x1="77.5" y1="140" x2="162.5" y2="140" stroke="#333"></line>
   <line x1="172.5" y1="140" x2="177.5" y2="140" stroke="#333"></line>
   <line x1="187.5" y1="140" x2="197.5" y2="140" stroke="#333"></line></g>

<g class="code block" stroke-linecap="round" stroke-width="5">
   <line x1="52.5" y1="150" x2="62.5" y2="150" stroke="#333"></line>
   <line x1="72.5" y1="150" x2="72.5" y2="150" stroke="#333"></line>
   <line x1="77.5" y1="150" x2="137.5" y2="150" stroke="#333"></line>
   <line x1="147.5" y1="150" x2="152.5" y2="150" stroke="#333"></line>
   <line x1="162.5" y1="150" x2="172.5" y2="150" stroke="#333"></line></g>

<g class="code block" stroke-linecap="round" stroke-width="5">
   <line x1="52.5" y1="160" x2="62.5" y2="160" stroke="#333"></line>
   <line x1="72.5" y1="160" x2="72.5" y2="160" stroke="#333"></line>
   <line x1="77.5" y1="160" x2="102.5" y2="160" stroke="#333"></line>
   <line x1="112.5" y1="160" x2="132.5" y2="160" stroke="#333"></line>
   <line x1="137.5" y1="160" x2="137.5" y2="160" stroke="#333"></line>
   <line x1="142.5" y1="160" x2="177.5" y2="160" stroke="#333"></line>
   <line x1="187.5" y1="160" x2="217.5" y2="160" stroke="#333"></line>
   <line x1="222.5" y1="160" x2="222.5" y2="160" stroke="#333"></line>
   <line x1="227.5" y1="160" x2="277.5" y2="160" stroke="#333"></line>
   <line x1="287.5" y1="160" x2="292.5" y2="160" stroke="#333"></line>
   <line x1="302.5" y1="160" x2="312.5" y2="160" stroke="#333"></line></g>

<g class="code block" stroke-linecap="round" stroke-width="5">
   <line x1="52.5" y1="170" x2="62.5" y2="170" stroke="#333"></line>
   <line x1="72.5" y1="170" x2="72.5" y2="170" stroke="#333"></line>
   <line x1="77.5" y1="170" x2="117.5" y2="170" stroke="#333"></line>
   <line x1="127.5" y1="170" x2="132.5" y2="170" stroke="#333"></line>
   <line x1="142.5" y1="170" x2="152.5" y2="170" stroke="#333"></line></g>

<g class="code block" stroke-linecap="round" stroke-width="5">
   <line x1="52.5" y1="180" x2="52.5" y2="180" stroke="#333"></line>
   <line x1="57.5" y1="180" x2="87.5" y2="180" stroke="#333"></line>
   <line x1="97.5" y1="180" x2="102.5" y2="180" stroke="#333"></line></g>

<g class="code block" stroke-linecap="round" stroke-width="5">
   <line x1="42.5" y1="190" x2="47.5" y2="190" stroke="#333"></line>
   <line x1="52.5" y1="190" x2="67.5" y2="190" stroke="#333"></line>
   <line x1="72.5" y1="190" x2="72.5" y2="190" stroke="#333"></line></g>

<g class="code block" stroke-linecap="round" stroke-width="5">
   <line x1="42.5" y1="200" x2="42.5" y2="200" stroke="#333"></line>
   <line x1="47.5" y1="200" x2="72.5" y2="200" stroke="#333"></line>
   <line x1="82.5" y1="200" x2="87.5" y2="200" stroke="#333"></line></g>

<g class="code block" stroke-linecap="round" stroke-width="5">
   <line x1="32.5" y1="210" x2="42.5" y2="210" stroke="#333"></line></g>

<g class="code block" stroke-linecap="round" stroke-width="5">
   <line x1="22.5" y1="220" x2="27.5" y2="220" stroke="#333"></line></g>

<g class="code block" stroke-linecap="round" stroke-width="5">
   <line x1="7.5" y1="230" x2="17.5" y2="230" stroke="#333"></line></g>

<g class="code block" stroke-linecap="round" stroke-width="5">
</g>

<g class="code block" stroke-linecap="round" stroke-width="5">
   <line x1="7.5" y1="250" x2="42.5" y2="250" stroke="#333"></line>
   <line x1="47.5" y1="250" x2="77.5" y2="250" stroke="#333"></line>
   <line x1="87.5" y1="250" x2="102.5" y2="250" stroke="#333"></line></g>

<g class="code block" stroke-linecap="round" stroke-width="5">
</g>
</g>
</svg>